<?xml version="1.0" encoding="UTF-8"?>
<svg id="Capa_1" xmlns="http://www.w3.org/2000/svg" version="1.1" viewBox="0 0 733.4 734.7">
  <!-- Generator: Adobe Illustrator 29.3.1, SVG Export Plug-In . SVG Version: 2.1.0 Build 151)  -->
  <defs>
    <style>
      .st0 {
        fill: #d4af37;
      }

      .st1 {
        fill: #1f1f1f;
        stroke: #fff;
        stroke-miterlimit: 10;
        stroke-width: 2px;
      }
    </style>
  </defs>
  <circle class="st1" cx="367" cy="367.2" r="367.8"/>
  <path class="st0" d="M277.2,306.2l-55,190.8c13.3,1.4,23.9,2.1,31.8,2.1,14.1,0,28.8-1.7,44-5l-4.1,17.6c-15.2,3.3-29.1,5-41.6,5s-31.4-1-51-2.9c-20.9-1.4-38.7-2.1-53.4-2.1-23.6,0-53.1,2.7-88.5,8.2l5.7-20.1c29.6-6.5,49.1-13,58.3-19.7,13.9-10.8,24.5-28.9,31.8-54.5l56.7-200.5c7.3-24.9,11-39.8,11-44.8s-1.8-7.4-5.3-9.3c-3.5-1.9-10.3-2.9-20.4-2.9l5.7-17.9c33.7,0,74.9-4.3,123.5-12.9-4.6,13.2-19,61.8-43.2,146,9.8,2.4,19.7,3.6,29.8,3.6,30.7,0,56.8-10.8,78.3-32.3,21.5-21.5,32.2-46,32.2-73.5s-9.1-41.4-27.3-55.4c-18.2-14-42.5-21-73-21-45.7,0-88.8,9-129.4,27.1-40.6,18.1-71.9,40.2-94,66.5-22,26.3-33,53.4-33,81.4s3.1,24.4,9.2,33c6.1,8.6,15.3,17,27.5,25.1,9.5,6,16.4,11.4,20.6,16.1,4.2,4.8,6.3,10.2,6.3,16.1s-2.4,11.2-7.3,15.8c-4.9,4.5-11.2,6.8-18.8,6.8-18.2,0-33.6-9.9-46.1-29.8-12.5-19.9-18.8-42.9-18.8-69.2,0-39.9,13.8-76.1,41.4-108.5,27.6-32.4,64.5-57.9,110.9-76.6,46.3-18.7,94.1-28,143.3-28s100.9,8.4,133.9,25.3,49.5,40,49.5,69.4-14.3,57.5-43,82.7c-28.7,25.2-68.3,41.6-118.8,49,6.8,11,13.6,23.1,20.4,36.4s16.7,37.6,29.8,73c25.3,67,49.3,114.4,72.2,142.4s48,42,75.4,42,17.7-2.6,24.5-7.7c6.8-5.2,11.4-12.9,13.9-23.1,3.8-14.8,8.4-24.8,13.7-30,5.3-5.2,11.9-7.7,19.8-7.7s15.9,2.5,21.6,7.5c5.7,5,8.6,11.6,8.6,19.7,0,12-5.8,23-17.5,33.2-11.7,10.2-24.9,17.6-39.5,22.2s-31,7-48.9,7c-87.8,0-155.2-49.7-202.2-149.2-10.9-21.8-25.5-59.7-44-113.7l-18.3-52-8.6-.7h0Z"/>
</svg>